<?xml version="1.0" encoding="utf-8"?>
<!-- Generator: Adobe Illustrator 23.0.1, SVG Export Plug-In . SVG Version: 6.00 Build 0)  -->
<svg version="1.1" id="Layer_1" xmlns="http://www.w3.org/2000/svg" xmlns:xlink="http://www.w3.org/1999/xlink" x="0px" y="0px"
	 viewBox="0 0 32 32" style="enable-background:new 0 0 32 32;" xml:space="preserve">
<style type="text/css">
	.Black{fill:#727272;}
	.Blue{fill:#1177D7;}
	.Yellow{fill:#FFB115;}
	.st0{fill:none;}
	.st1{opacity:0.5;}
</style>
<path class="Yellow" d="M31,16H19c-0.6,0-1,0.4-1,1v12c0,0.6,0.4,1,1,1h12c0.6,0,1-0.4,1-1V17C32,16.4,31.6,16,31,16z M30,20h-7.2
	l3,3l-3,3H30v2H20v-2l3-3l-3-3v-2h10V20z"/>
<line class="st0" x1="0" y1="16" x2="0" y2="12"/>
<line class="st0" x1="0" y1="22" x2="0" y2="18"/>
<rect y="2" class="Blue" width="8" height="6"/>
<rect x="10" y="2" class="Blue" width="8" height="6"/>
<rect x="20" y="2" class="Blue" width="8" height="6"/>
<g class="st1">
	<rect y="10" class="Black" width="8" height="6"/>
	<rect x="20" y="10" class="Black" width="8" height="4"/>
	<rect y="18" class="Black" width="8" height="6"/>
	<rect x="10" y="18" class="Black" width="6" height="6"/>
	<path class="Black" d="M17,14h1v-4h-8v6h6v-1C16,14.4,16.4,14,17,14z"/>
</g>
</svg>
