<?xml version='1.0' encoding='UTF-8'?>
<svg x="0px" y="0px" viewBox="0 0 32 32" version="1.1" xmlns="http://www.w3.org/2000/svg" xmlns:xlink="http://www.w3.org/1999/xlink" xml:space="preserve" id="Vertical_Mode" style="enable-background:new 0 0 32 32">
  <style type="text/css">
	.Black{fill:#727272;}
	.Blue{fill:#1177D7;}
	.st0{opacity:0.5;}
</style>
  <g class="st0">
    <path d="M10,19.8V20H4v-8h6v2H6.4L10,19.8z M10,2H4v8h6V2z M4,30h6v-8H4V30z M18,2h-6v4h6V2z M20,30h6v-8h-6V30z    M20,14h3.6L20,19.8V20h6v-8h-6V14z M20,2v8h6V2H20z M15,27.8L12,23v7h6v-7L15,27.8z" class="Black" />
  </g>
  <polygon points="14,8 16,8 16,16 20,16 15,24 10,16 14,16 " class="Blue" />
</svg>